<svg width="24" height="24" viewBox="0 0 24 24" fill="none" xmlns="http://www.w3.org/2000/svg">
<path fill-rule="evenodd" clip-rule="evenodd" d="M2.40039 2.39999H6.00039V5.99999H2.40039V2.39999ZM12.0004 15.6L8.40039 12L12.0004 8.39999L15.6004 12L12.0004 15.6ZM21.6004 2.39999H18.0004V5.99999H21.6004V2.39999ZM10.2004 2.39999H13.8004V5.99999H10.2004V2.39999ZM13.8004 18H10.2004V21.6H13.8004V18ZM18.0004 10.2H21.6004V13.8H18.0004V10.2ZM6.00039 10.2H2.40039V13.8H6.00039V10.2ZM2.40039 18H6.00039V21.6H2.40039V18ZM21.6004 18H18.0004V21.6H21.6004V18Z" fill="#1A1A1A"/>
</svg>
